<svg xmlns="http://www.w3.org/2000/svg" xmlns:xlink="http://www.w3.org/1999/xlink" width="170.0531" height="16.436" viewBox="0 0 170.0531 16.436"><defs><clipPath id="clip-path" transform="translate(0 0.0005)"><rect width="170.053" height="16.435" style="fill:none"/></clipPath></defs><g id="Layer_2" data-name="Layer 2"><g id="Layer_1-2" data-name="Layer 1"><g style="clip-path:url(#clip-path)"><path d="M24.6334,8.2225a8.211,8.211,0,1,1,8.211,8.213,8.212,8.212,0,0,1-8.211-8.213" transform="translate(0 0.0005)" style="fill:#0f3741"/><path d="M0,8.2225a8.211,8.211,0,1,1,8.211,8.213A8.212,8.212,0,0,1,0,8.2225" transform="translate(0 0.0005)" style="fill:#64d7dc"/><rect x="132.032" y="3.3585" width="2.932" height="12.286" style="fill:#0f3741"/><path d="M144.3838,13.59a2.4308,2.4308,0,0,1-1.924-.72h-.002a2.5916,2.5916,0,0,1-.483-1.769l.015-5.337h3.752V3.3585H141.99V0h-2.931v10.489a5.7668,5.7668,0,0,0,.901,3.672,5.012,5.012,0,0,0,4.228,1.746,9.4239,9.4239,0,0,0,1.851-.193l-.457-2.22a9.0613,9.0613,0,0,1-1.198.096" transform="translate(0 0.0005)" style="fill:#0f3741"/><path d="M75.2514,8.8939a5.1728,5.1728,0,0,0,1.169-3.45,5.34,5.34,0,0,0-1.522-3.9A5.82,5.82,0,0,0,70.7014,0h-6.759v15.644h2.981v-5.025h3.538l2.672,5.025h3.14l-2.96-5.388a4.7264,4.7264,0,0,0,1.938-1.362m-2.028-2.842a2.8508,2.8508,0,0,1-2.687,2.049h-3.613V2.5149h3.613a2.8311,2.8311,0,0,1,2.837,2.794,2.2192,2.2192,0,0,1-.15.743" transform="translate(0 0.0005)" style="fill:#0f3741"/><path d="M55.2461,3.093c-3.405.003-5.966,2.743-5.973,6.422a6.3522,6.3522,0,0,0,1.797,4.608,6.47,6.47,0,0,0,4.65,1.784,6.7718,6.7718,0,0,0,4.697-1.834l-1.8-1.465a4.6066,4.6066,0,0,1-2.818,1.027,3.571,3.571,0,0,1-3.725-3.525h8.911a5.332,5.332,0,0,0,.048-.729,6.5384,6.5384,0,0,0-1.682-4.471,5.5434,5.5434,0,0,0-4.105-1.817m-3.023,5.008a3.1172,3.1172,0,0,1,3.023-2.734,2.8612,2.8612,0,0,1,2.801,2.734Z" transform="translate(0 0.0005)" style="fill:#0f3741"/><path d="M84.7461,3.093c-3.405.003-5.966,2.743-5.973,6.422a6.3522,6.3522,0,0,0,1.797,4.608,6.47,6.47,0,0,0,4.65,1.784,6.7718,6.7718,0,0,0,4.697-1.834l-1.8-1.465A4.6059,4.6059,0,0,1,85.3,13.635a3.5714,3.5714,0,0,1-3.726-3.525h8.91a5.332,5.332,0,0,0,.048-.729,6.5424,6.5424,0,0,0-1.681-4.471,5.5434,5.5434,0,0,0-4.105-1.817m-3.023,5.008a3.1172,3.1172,0,0,1,3.023-2.734,2.8612,2.8612,0,0,1,2.801,2.734Z" transform="translate(0 0.0005)" style="fill:#0f3741"/><path d="M154.2609,3.093c-3.404.003-5.966,2.743-5.973,6.422a6.3563,6.3563,0,0,0,1.797,4.608,6.47,6.47,0,0,0,4.65,1.784,6.7718,6.7718,0,0,0,4.697-1.834l-1.8-1.465a4.6041,4.6041,0,0,1-2.818,1.027,3.57,3.57,0,0,1-3.725-3.525h8.91a5.1714,5.1714,0,0,0,.049-.729,6.5432,6.5432,0,0,0-1.682-4.471,5.5434,5.5434,0,0,0-4.105-1.817m-3.023,5.008a3.1172,3.1172,0,0,1,3.023-2.734,2.8625,2.8625,0,0,1,2.802,2.734Z" transform="translate(0 0.0005)" style="fill:#0f3741"/><path d="M124.6618,10.047a3.0382,3.0382,0,0,1-3.113,3.325,2.4426,2.4426,0,0,1-1.928-.72l.002.002-.004-.002a2.6025,2.6025,0,0,1-.479-1.769V3.358h-2.93v7.131a5.7681,5.7681,0,0,0,.898,3.67v.002a5.0154,5.0154,0,0,0,4.229,1.746,4.18,4.18,0,0,0,3.48-1.98v1.717h2.777V3.358h-2.932Z" transform="translate(0 0.0005)" style="fill:#0f3741"/><path d="M165.9891,7.9a2.5946,2.5946,0,0,1,.482-1.77h.003a2.4314,2.4314,0,0,1,1.924-.72,9.2544,9.2544,0,0,1,1.198.097l.457-2.22a9.5074,9.5074,0,0,0-1.851-.194,5.0176,5.0176,0,0,0-4.228,1.746,5.77,5.77,0,0,0-.902,3.672v7.133h2.93Z" transform="translate(0 0.0005)" style="fill:#0f3741"/><path d="M109.4116,7.9a2.5893,2.5893,0,0,1,.483-1.77h.002a2.4328,2.4328,0,0,1,1.924-.72,9.2233,9.2233,0,0,1,1.197.097l.458-2.22a9.5074,9.5074,0,0,0-1.851-.194,5.0184,5.0184,0,0,0-4.229,1.746,5.7768,5.7768,0,0,0-.901,3.672v7.133h2.93Z" transform="translate(0 0.0005)" style="fill:#0f3741"/><path d="M99.3575,13.6348a3.4,3.4,0,0,1-3.147-1.605,4.9838,4.9838,0,0,1,0-5.059,3.5333,3.5333,0,0,1,3.147-1.606,4.6034,4.6034,0,0,1,2.817,1.027l1.8-1.465a6.7763,6.7763,0,0,0-4.697-1.834,6.4712,6.4712,0,0,0-4.65,1.784,6.3516,6.3516,0,0,0-1.796,4.608v.031a6.3508,6.3508,0,0,0,1.796,4.607,6.4712,6.4712,0,0,0,4.65,1.784,6.771,6.771,0,0,0,4.697-1.833l-1.8-1.465a4.61,4.61,0,0,1-2.817,1.026" transform="translate(0 0.0005)" style="fill:#0f3741"/></g></g></g></svg>